<?xml version="1.0" encoding="UTF-8"?>
<svg id="Layer_1" xmlns="http://www.w3.org/2000/svg" version="1.1" viewBox="0 0 1090.06 667.33">
  <!-- Generator: Adobe Illustrator 29.7.1, SVG Export Plug-In . SVG Version: 2.1.1 Build 8)  -->
  <defs>
    <style>
      .st0 {
        fill: #b0dcc6;
      }

      .st1 {
        fill: #fad0e2;
      }

      .st2 {
        fill: #fed8aa;
      }

      .st3 {
        fill: #0f395c;
      }

      .st4 {
        fill: #c9d1eb;
      }
    </style>
  </defs>
  <g>
    <rect class="st1" x="16.65" y="162.18" width="204.51" height="488.1" rx="4.39" ry="4.39"/>
    <rect class="st4" x="231.17" y="40.45" width="204.51" height="505.12" rx="4.39" ry="4.39"/>
    <rect class="st2" x="445.69" y="108.02" width="204.51" height="502.28" rx="4.39" ry="4.39"/>
    <rect class="st0" x="660.22" y="13.05" width="204.51" height="453.76" rx="4.39" ry="4.39"/>
  </g>
  <g>
    <path class="st3" d="M167.92,201.21c44.15,17.49,91.9,57.87,91.9,57.87l-11.99,19.18c-36.37-28.2-82.27-49.42-82.27-49.42-13.37-7.79-33.82-11.34-54.66-11.34-39.72,0-50.34,19.49-50.34,33.66,0,16.3,9.83,28.34,43.65,42.16l15.34,6.38c47.19,19.13,60.56,40.74,60.56,66.6,0,37.91-31.07,64.83-86.12,64.83-25.96,0-48.77-4.6-64.1-12.75-1.57-.71-1.97-2.13-1.97-4.25v-24.8c0-1.42,1.18-2.12,2.75-1.06,19.66,12.05,43.26,17,64.1,17,36.57,0,53.09-15.23,53.09-36.49,0-16.65-9.83-29.05-45.23-43.93l-16.12-6.73c-46.01-19.13-57.02-40.74-57.02-64.48,0-36.49,30.28-62.35,81.8-62.35,23.99,0,44.05,3.54,55.06,9.21"/>
    <path class="st3" d="M414.88,425.11c-11.8,4.61-29.1,6.02-49.55,6.02-62.92,0-127.02-33.66-127.02-120.1,0-70.85,52.31-119.74,132.14-119.74,23.99,0,38.93,2.48,47.19,6.02,1.18.35,1.97,1.42,1.97,3.19v22.67c0,2.48-1.57,2.48-2.75,1.77-10.23-4.6-26.74-7.44-47.19-7.44-58.6,0-98.71,35.78-98.71,92.46,0,74.75,58.6,94.94,97.53,94.94,18.88,0,32.64-1.42,46.4-6.02,0,0,23.44-8.61,59.53-33.63v32.41s-35.8,19.6-59.53,27.44Z"/>
    <path class="st3" d="M674.94,425.81c-.39,1.77-1.18,2.13-3.15,2.13h-201.06c-2.36,0-3.15-.71-3.15-2.83v-227.79c0-1.77.79-2.48,2.75-2.48h137.64c1.97,0,2.75.35,3.15,2.13l2.75,21.97c.4,1.42,0,2.12-1.97,2.12h-112.08v74.4h101.07c1.57,0,2.36.71,2.36,2.13v21.96c0,1.77-1.18,2.13-2.75,2.13h-100.68v80.07h169.94c1.97,0,5.19.35,4.79,2.13l.38,21.96Z"/>
    <path class="st3" d="M670.9,427.94c-1.97,0-3.15-.35-3.15-2.48v-228.5c0-1.42.79-2.13,2.36-2.13h37.75c1.97,0,2.75.71,3.54,2.13,32.64,51.72,104.61,167.57,118.76,193.79h.4c-.4-9.21-1.18-25.15-1.18-53.85v-139.58c0-1.77.79-2.48,2.75-2.48h25.17c1.97,0,2.75,1.06,2.75,2.48v228.15c0,1.77-.79,2.48-3.15,2.48h-34.21c-2.36,0-3.54-.35-4.32-2.13-17.3-30.82-109.33-174.65-121.52-201.22h-.39c1.18,13.46,1.57,32.95,1.57,62.7v138.16c0,1.77-.39,2.48-2.36,2.48h-24.78Z"/>
    <path class="st3" d="M1027.29,330.42l-18.37,79.02c-1.36,5.87-2.49,10.7-3.01,16.4-.08.34-.24,1.03-1.09,1.2-28.15,4.73-49.56,3.03-71.77-2.14-39.84-9.26-64.69-34.32-56.51-69.52,8.5-36.58,49.05-44.24,94.63-33.65,13.02,3.03,20.6,5.15,24.35,6.39l2.09-8.97c2.57-11.04,3.04-35.67-32.96-44.04-17.62-4.1-34.59-4.04-49.06-.86-1.23.08-2.3-.53-1.9-2.26l4.73-20.36c.32-1.38.86-1.98,2.56-2.32,15.23-3,34.5-2.52,54.42,2.11,47.11,10.95,60.15,43.45,51.89,78.99ZM990.31,350.55c-4.82-1.85-12.4-3.97-23.13-6.47-35.62-8.28-55.43-1.25-60,18.42-3.53,15.18,3.97,33.29,36.53,40.86,12.26,2.85,23,3.53,33.84,2.05l12.76-54.87Z"/>
  </g>
  <g>
    <path class="st3" d="M674.77,480.2h-9.25c-.18,0-.27-.05-.23-.27l.45-2.81c.05-.18.14-.27.37-.27h21.14c.23,0,.32.09.36.32l.32,2.72c.05.23-.04.32-.27.32h-9.21v26.17c0,.23-.09.32-.32.32h-3.04c-.23,0-.32-.09-.32-.32v-26.17Z"/>
    <path class="st3" d="M710.47,506.69c-.18,0-.27-.05-.27-.27v-13.65h-14.25v13.61c0,.18-.09.32-.27.32h-3.13c-.23,0-.27-.09-.27-.32v-29.21c0-.23.05-.32.27-.32h3.13c.23,0,.27.09.27.27v12.29h14.25v-12.29c0-.18.09-.27.27-.27h3.18c.18,0,.23.09.23.27v29.31c0,.23-.05.27-.23.27h-3.18Z"/>
    <path class="st3" d="M739.19,506.42c-.05.23-.13.27-.36.27h-16.51c-.27,0-.36-.09-.36-.36v-29.17c0-.23.09-.32.32-.32h15.88c.23,0,.32.05.37.27l.32,2.81c.05.18,0,.27-.23.27h-12.93v9.53h11.66c.18,0,.27.09.27.27v2.81c0,.23-.13.27-.32.27h-11.61v10.25h13.75c.23,0,.27.05.23.27l-.45,2.81Z"/>
    <path class="st3" d="M765.73,503.02c.86-3.18,3.13-10.57,8.44-25.9.05-.18.14-.27.37-.27h3.22c.18,0,.27.09.18.32l-10.25,29.26c-.09.23-.18.27-.36.27h-3.59c-.18,0-.27-.05-.41-.23l-10.44-29.31c-.09-.18-.05-.32.18-.32h3.45c.18,0,.27.05.32.23,4.95,13.88,8.03,23,8.8,25.95h.09Z"/>
    <path class="st3" d="M786.42,506.37c0,.23-.09.32-.32.32h-3.09c-.23,0-.32-.09-.32-.32v-29.21c0-.23.09-.32.32-.32h3.13c.18,0,.27.09.27.27v29.26Z"/>
    <path class="st3" d="M793.09,505.47c-.18-.09-.23-.27-.23-.54v-3.18c0-.18.13-.27.32-.14,2.27,1.54,4.99,2.18,7.4,2.18,4.22,0,6.12-1.95,6.12-4.67,0-2.13-1.14-3.72-5.22-5.62l-1.86-.86c-5.31-2.45-6.58-5.22-6.58-8.26,0-4.67,3.49-7.98,9.44-7.98,2.77,0,5.08.45,6.35,1.18.18.09.23.23.23.45v2.99c0,.18-.13.32-.32.18-1.54-1-3.9-1.45-6.31-1.45-4.58,0-5.81,2.5-5.81,4.31,0,2.09,1.14,3.63,5.03,5.4l1.77.82c5.44,2.45,6.98,5.22,6.98,8.53,0,4.85-3.58,8.3-9.93,8.3-2.99,0-5.62-.59-7.4-1.63Z"/>
    <path class="st3" d="M819.68,495.94c0,4.95,2.59,7.85,7.26,7.85,3.67,0,7.08-1.68,7.08-7.94v-18.69c0-.23.05-.32.27-.32h3.13c.23,0,.27.09.27.32v18.78c0,8.12-4.81,11.16-10.89,11.16-6.49,0-10.79-3.4-10.79-10.89v-19.05c0-.18.04-.32.27-.32h3.13c.18,0,.27.09.27.27v18.83Z"/>
    <path class="st3" d="M848.54,497.21l-3.08,9.21c-.09.18-.18.27-.36.27h-2.99c-.23,0-.32-.09-.27-.36l9.44-27.45c.14-.36.23-.68.27-1.82,0-.14.09-.23.23-.23h4.36c.18,0,.23.05.27.23l10.16,29.31c.05.18,0,.32-.18.32h-3.36c-.18,0-.27-.09-.37-.23l-3.13-9.25h-10.98ZM858.52,493.85c-.95-3.04-3.68-10.84-4.49-13.97h-.05c-.72,2.95-2.81,8.94-4.45,13.97h8.98Z"/>
    <path class="st3" d="M871.67,506.69c-.27,0-.36-.14-.36-.36v-29.17c0-.18.09-.32.27-.32h3.18c.18,0,.27.09.27.27v26.18h13.38c.23,0,.27.14.23.32l-.5,2.81c-.05.23-.18.27-.36.27h-16.11Z"/>
    <path class="st3" d="M909.92,480.2h-9.25c-.18,0-.27-.05-.23-.27l.45-2.81c.05-.18.14-.27.37-.27h21.14c.23,0,.32.09.36.32l.32,2.72c.05.23-.04.32-.27.32h-9.21v26.17c0,.23-.09.32-.32.32h-3.04c-.23,0-.32-.09-.32-.32v-26.17Z"/>
    <path class="st3" d="M927.71,506.69c-.23,0-.32-.05-.32-.27v-29.17c0-.18.09-.36.27-.36,2.32-.05,4.63-.14,7.58-.14,6.44,0,10.75,2.86,10.75,8.57,0,4.27-2.81,6.9-6.08,7.98,1.5,2.04,7.4,11.02,8.53,13.02.14.18.09.36-.09.36h-3.72c-.27,0-.36-.05-.45-.23-1.36-2.09-4.99-7.89-7.26-11.43-.32-.5-.54-.73-1-.73h-4.9v12.11c0,.18-.05.27-.27.27h-3.04ZM935.6,491.09c4.26,0,6.67-2.31,6.67-5.58,0-3.45-2.5-5.49-7.17-5.49-1.63,0-3.22.09-4.08.14v10.93h4.58Z"/>
    <path class="st3" d="M956.56,497.21l-3.08,9.21c-.09.18-.18.27-.36.27h-2.99c-.23,0-.32-.09-.27-.36l9.44-27.45c.14-.36.23-.68.27-1.82,0-.14.09-.23.23-.23h4.36c.18,0,.23.05.27.23l10.16,29.31c.05.18,0,.32-.18.32h-3.36c-.18,0-.27-.09-.37-.23l-3.13-9.25h-10.98ZM966.55,493.85c-.95-3.04-3.68-10.84-4.49-13.97h-.05c-.72,2.95-2.81,8.94-4.45,13.97h8.98Z"/>
    <path class="st3" d="M998.04,505.88c0,.23-.09.41-.27.45-1.36.59-3.36.77-5.72.77-7.26,0-14.65-4.31-14.65-15.38,0-9.07,6.04-15.33,15.24-15.33,2.77,0,4.49.32,5.44.77.13.05.23.18.23.41v2.9c0,.32-.18.32-.32.23-1.18-.59-3.09-.95-5.44-.95-6.76,0-11.39,4.58-11.39,11.84,0,9.57,6.76,12.16,11.25,12.16,2.18,0,3.77-.18,5.35-.77.14-.04.27-.04.27.18v2.72Z"/>
    <path class="st3" d="M1007.57,506.37c0,.23-.09.32-.32.32h-3.09c-.23,0-.32-.09-.32-.36v-29.22c0-.18.05-.27.32-.27h3.13c.18,0,.27.09.27.32v29.21ZM1007.75,491.95c-.23-.23-.23-.41,0-.63l12.79-14.25c.14-.14.23-.23.45-.23h3.49c.27,0,.32.23.18.41l-12.7,13.79c-.09.14-.09.23,0,.36l13.7,14.88c.13.18.05.41-.18.41h-3.81c-.27,0-.41-.05-.59-.27l-13.34-14.47Z"/>
    <path class="st3" d="M1046.45,506.42c-.05.23-.14.27-.36.27h-16.51c-.27,0-.36-.09-.36-.36v-29.17c0-.23.09-.32.32-.32h15.88c.23,0,.32.05.37.27l.32,2.81c.05.18,0,.27-.23.27h-12.93v9.53h11.66c.18,0,.27.09.27.27v2.81c0,.23-.14.27-.32.27h-11.61v10.25h13.75c.23,0,.27.05.23.27l-.45,2.81Z"/>
    <path class="st3" d="M1052.62,506.69c-.23,0-.32-.05-.32-.27v-29.17c0-.18.09-.36.27-.36,2.31-.05,4.63-.14,7.58-.14,6.44,0,10.75,2.86,10.75,8.57,0,4.27-2.81,6.9-6.08,7.98,1.5,2.04,7.4,11.02,8.53,13.02.14.18.09.36-.09.36h-3.72c-.27,0-.36-.05-.45-.23-1.36-2.09-4.99-7.89-7.26-11.43-.32-.5-.54-.73-1-.73h-4.9v12.11c0,.18-.05.27-.27.27h-3.04ZM1060.51,491.09c4.26,0,6.67-2.31,6.67-5.58,0-3.45-2.5-5.49-7.17-5.49-1.63,0-3.22.09-4.08.14v10.93h4.58Z"/>
  </g>
</svg>